.
..............................Site Info...........................

 -   http://www.scenetime.com  *_*    

Scenetime .Always on time . friendly online private torrent community ..

     We care to share . Join us on  http://www.scenetime.com 

    Be the first to get new release at  http://www.scenetime.com

        Seed back for speed


...................................NFO:.................................................[IMG]http://i.imgur.com/qD9lu.gif[/IMG]

 
TITLE: 

Prometheus 2012 DVDRiP AC3 XViD - INSPiRAL

IMDB: 
 
http://www.imdb.com/title/tt1446714/


SOURCES:

VIDEO -  Truefrench DVDR.iso THANKS
AUDIO -  Truefrench DVDR.iso THANKS
SUBS  - None Add

STATS:

Video
ID                               : 0
Format                           : MPEG-4 Visual
Format profile                   : Advanced Simple@L5
Format settings, BVOP            : 2
Format settings, QPel            : No
Format settings, GMC             : No warppoints
Format settings, Matrix          : Default (MPEG)
Muxing mode                      : Packed bitstream
Codec ID                         : XVID
Codec ID/Hint                    : XviD
Duration                         : 1h 58mn
Bit rate                         : 2 014 Kbps
Width                            : 720 pixels
Height                           : 304 pixels
Display aspect ratio             : 2.35:1
Frame rate                       : 25.000 fps
Color space                      : YUV
Chroma subsampling               : 4:2:0
Bit depth                        : 8 bits
Scan type                        : Progressive
Compression mode                 : Lossy
Bits/(Pixel*Frame)               : 0.368
Stream size                      : 1.67 GiB (81%)
Writing library                  : XviD 64

Audio
ID                               : 1
Format                           : AC-3
Format/Info                      : Audio Coding 3
Mode extension                   : CM (complete main)
Codec ID                         : 2000
Duration                         : 1h 58mn
Bit rate mode                    : Constant
Bit rate                         : 448 Kbps
Channel(s)                       : 6 channels
Channel positions                : Front: L C R, Side: L R, LFE
Sampling rate                    : 48.0 KHz
Bit depth                        : 16 bits
Compression mode                 : Lossy
Stream size                      : 380 MiB (18%)
Alignment                        : Aligned on interleaves
Interleave, duration             : 40 ms (1.00 video frame)
Interleave, preload duration     : 512 ms



NOTES:

Ok late to the party with this one but we didn't want to release one with cam audio or re-encode the
french dvdrip and then just add the studio audio to it ;-) 
Right video was nice but imho ...the video needed tweaking ( see screen shot ),thought the contrast was off
colours a little,well lacking life....
Audio is studio and is sweet ...just needed to add a 500ms + to get it insync,as the normal demux and remuxed didn't
line up.

The video we have tweaked and gave it the life it was missing ...of course in our opinion that is,but here is a screen
shot to show you what we mean......then you can decide.

[img]i.imgrz.com/lh0tv.png[/img]

Either way enjoy copy 99999 :P



SCREENS:

[img]http://i.imgrz.com/K49X5.png[/img] 
[img]http://i.imgrz.com/i6xQt.png[/img] 
[img]http://i.imgrz.com/Uj9cg.png[/img] 
[img]http://i.imgrz.com/abxnv.png[/img] 
[img]http://i.imgrz.com/Zk8aP.png[/img] 

GREETZ: 

Past,Present and Future

[IMG]http://i.imgur.com/qD9lu.gif[/IMG]